# xmcd
#
# Track frame offsets: 
#        150
#        13722
#        29894
#        51161
#        66555
#        87761
#        100240
#        110340
#        129751
#        159544
#        174022
#        201079
#        221490
#        231383
#        246306
#
# Disc length: 3704 seconds
#
# Revision: 0
# Processed by: cddbd v1.5.1PL0 Copyright (c) Steve Scherf et al.
# Submitted via: ExactAudioCopy v0.95b1
#
DISCID=ce0e760f
DTITLE=Johnny Copeland - Binghampton 1983
DYEAR=1900
DGENRE=
TTITLE0=Boogie Woogie Nighthawk
TTITLE1=Natural Born Believer
TTITLE2=Honky Tonkin'
TTITLE3=Everybody Wants A Piece Of Me
TTITLE4=Early In The Morning
TTITLE5=Well Well Baby-La
TTITLE6=Tell Me The Reason
TTITLE7=?
TTITLE8=(Instrumental)
TTITLE9=?
TTITLE10=Love Utopia
TTITLE11=Old Man Blues
TTITLE12=(That's It I Quit)
TTITLE13=Devil's Hand
TTITLE14=Claim Jumper
EXTD=
EXTT0=
EXTT1=
EXTT2=
EXTT3=
EXTT4=
EXTT5=
EXTT6=
EXTT7=
EXTT8=
EXTT9=
EXTT10=
EXTT11=
EXTT12=
EXTT13=
EXTT14=
PLAYORDER=
